<svg width="80" height="80" viewBox="0 0 80 80" fill="none" xmlns="http://www.w3.org/2000/svg">
<g clip-path="url(#clip0_305_784)">
<path d="M40 80C62.0914 80 80 62.0914 80 40C80 17.9086 62.0914 0 40 0C17.9086 0 0 17.9086 0 40C0 62.0914 17.9086 80 40 80Z" fill="#FFF0E7" stroke="#FFCFB5"/>
<path d="M5.82678 60.8032C12.8504 72.315 25.5276 80 40 80C54.4724 80 67.1496 72.315 74.1732 60.8032H5.82678Z" fill="#FFCFB5" stroke="white" stroke-width="0.00256"/>
<path d="M59.2191 52.9045V62.9908H20.7638V52.9732C20.7638 52.9045 20.8325 52.8271 20.9098 52.7584L28.7624 48.3682L34.5273 56.5816C35.0342 57.2259 35.8934 57.4493 36.6924 56.7964L40.2922 53.5574L43.892 56.7964C44.5363 57.372 45.4728 57.3033 46.0484 56.5816L51.736 48.583L59.0817 52.6897C59.1504 52.7584 59.2191 52.8271 59.2191 52.9045Z" fill="#FFC700"/>
<path d="M45.7563 45.0519L40.2148 50.0263L34.3039 44.8371C34.3726 44.691 34.4499 44.4763 34.4499 44.3302V44.0468C36.1081 45.1292 37.9811 45.7736 39.9914 45.7736C42.0791 45.7736 43.9521 45.1981 45.5329 44.2615V44.3302C45.5329 44.6222 45.6102 44.8371 45.7563 45.0519Z" fill="#CE4300"/>
<path d="M49.5022 22.3618V25.4633C47.1224 24.2347 43.8147 23.4443 40.0688 23.4443C36.2886 23.4443 33.0067 24.2175 30.6354 25.4203V22.3618C30.6354 21.3566 31.211 20.4889 32.1475 20.0593L38.2732 17.3187C39.4245 16.8118 40.7217 16.8118 41.8043 17.3187L47.9987 20.0593C48.9265 20.489 49.5022 21.3567 49.5022 22.3618Z" fill="#FFF0E7"/>
<path d="M48.7804 32.156H31.2025C31.778 38.3504 35.3092 42.8866 39.9914 42.8866C45.8937 42.8868 48.3423 37.414 48.7804 32.156Z" fill="#CE4300"/>
<path d="M48.2735 46.71L42.5087 51.8218L44.5277 53.6174L49.1414 47.1396L48.2735 46.71Z" fill="#FFC700"/>
<path d="M31.2798 46.9248L35.8847 53.6174L37.9037 51.8218L31.9241 46.564L31.2798 46.9248Z" fill="#FFC700"/>
<path d="M30.1972 29.278H50.0004C48.4883 27.6971 44.7424 26.3226 40.0601 26.3226C35.4552 26.3226 31.7093 27.6885 30.1972 29.278Z" fill="#FFF0E7"/>
<path d="M60.5163 50.2325L48.4883 43.5312V41.6583C50.3613 39.2785 51.4437 36.0394 51.7273 32.1475H52.2342C53.0247 32.1475 53.6776 31.5032 53.6776 30.7041C53.6776 29.6216 53.2481 28.6164 52.5263 27.6799V22.3533C52.5263 20.1882 51.2289 18.2466 49.2873 17.3874L43.0844 14.6554C41.2114 13.865 39.055 13.865 37.1821 14.6554L30.9877 17.396C28.9687 18.2637 27.7487 20.2054 27.7487 22.3619V27.766C27.027 28.6337 26.6662 29.6389 26.6662 30.7214C26.6662 31.5117 27.3105 32.1648 28.1096 32.1648H28.4017C28.6938 35.7646 29.8452 38.9348 31.6407 41.3146V43.4796L19.4667 50.2325C18.4614 50.8081 17.8859 51.8133 17.8859 52.9731V64.4943C17.8859 65.2847 18.5302 65.9377 19.3293 65.9377H60.6713C61.4617 65.9377 62.1147 65.2932 62.1147 64.4943V52.9731C62.1058 51.8218 61.4528 50.7394 60.5163 50.2325ZM49.064 47.2083L44.5278 53.6174L42.5088 51.8132L48.1963 46.7012L49.064 47.2083ZM45.7563 45.0518L40.2062 50.0177L34.3039 44.8286C34.3726 44.6825 34.45 44.4678 34.45 44.3217V44.0296C36.1081 45.112 37.9811 45.7565 40.0001 45.7565C42.0878 45.7565 43.9607 45.1809 45.5502 44.2443V44.3131C45.5415 44.6222 45.6103 44.8371 45.7563 45.0518ZM32.1388 20.0593L38.2645 17.3187C39.4158 16.8118 40.7131 16.8118 41.7957 17.3187L47.9901 20.0593C48.9265 20.4888 49.5022 21.3567 49.5022 22.3618V25.4547C47.1224 24.2262 43.8147 23.4357 40.0688 23.4357C36.2886 23.4357 33.0067 24.2089 30.6354 25.4203V22.3618C30.6267 21.3567 31.2024 20.489 32.1388 20.0593ZM40.1375 26.3226C44.7511 26.3226 48.5657 27.6886 50.0091 29.278H30.1972C31.7093 27.6885 35.4552 26.3226 40.1375 26.3226ZM31.2024 32.156H48.7806C48.351 37.414 45.9024 42.8867 39.9916 42.8867C35.3091 42.8868 31.778 38.3506 31.2024 32.156ZM31.9241 46.6327L37.9037 51.8218L35.8847 53.6261L31.2712 47.0021L31.9241 46.6327ZM59.2191 62.9821H20.7638V52.9731C20.7638 52.9044 20.8325 52.8271 20.9098 52.7584L28.7624 48.3682L34.5273 56.5816C35.0342 57.2259 35.8934 57.4493 36.6924 56.7964L40.2922 53.5574L43.892 56.7964C44.5363 57.3719 45.4728 57.3032 46.0571 56.5816L51.7446 48.583L59.0903 52.6897C59.159 52.7584 59.2364 52.8357 59.2364 52.9044V62.9821H59.2191Z" fill="#5F5F5F"/>
</g>
<defs>
<clipPath id="clip0_305_784">
<rect width="80" height="80" fill="white"/>
</clipPath>
</defs>
</svg>
