<svg width="81" height="80" viewBox="0 0 81 80" fill="none" xmlns="http://www.w3.org/2000/svg">
<path d="M40.5 80C62.5914 80 80.5 62.0914 80.5 40C80.5 17.9086 62.5914 0 40.5 0C18.4086 0 0.5 17.9086 0.5 40C0.5 62.0914 18.4086 80 40.5 80Z" fill="#FFF0E7" stroke="white" stroke-width="0.00256"/>
<path d="M29.846 54.5603C22.4938 55.4401 15.1364 54.5438 7.77539 55.3624C12.9291 45.6853 18.0811 36.0089 23.2338 26.3326C27.1681 25.5348 31.0899 24.6926 34.9984 23.786C33.2798 33.4605 31.5627 44.884 29.846 54.5603Z" fill="#4D4D4D" fill-opacity="0.6"/>
<path d="M29.8477 54.5604C33.4398 55.0104 37.0334 54.9979 40.6279 54.9856C44.0888 54.9737 47.551 54.9617 51.0139 55.3625C49.2951 45.6854 47.5798 36.009 45.8601 26.3327C42.2262 25.5359 38.6057 24.6961 34.9999 23.786C33.2815 33.4604 31.5659 44.884 29.8477 54.5604Z" fill="#4D4D4D" fill-opacity="0.6"/>
<path d="M71.7752 54.72C65.0271 55.6032 57.7706 54.5455 51.0128 55.3624C49.294 45.6853 47.5787 36.009 45.8594 26.3326C49.1954 25.5409 52.5181 24.7127 55.8176 23.786C60.9675 33.4604 66.624 45.0419 71.7752 54.72Z" fill="#4D4D4D" fill-opacity="0.6"/>
<path d="M29.846 52.8156C22.4938 53.6963 15.1364 54.5438 7.77539 55.3624C12.9291 45.6853 18.0811 36.0089 23.2338 26.3326C27.1681 25.5348 31.0899 24.6926 34.9984 23.786C33.2798 33.4605 31.5627 43.1394 29.846 52.8156Z" fill="#FDFDFD"/>
<path d="M71.2714 52.8156C64.5225 53.698 57.7692 54.5455 51.011 55.3624C49.2924 45.6853 47.5769 36.009 45.8574 26.3326C49.1936 25.5409 52.5168 24.7127 55.8159 23.786C60.966 33.4603 66.12 43.1394 71.2714 52.8156Z" fill="#FDFDFD"/>
<path d="M29.8477 52.8156C36.8985 53.6981 43.9543 54.5456 51.0139 55.3625C49.2951 45.6854 47.5798 36.009 45.8601 26.3327C42.2262 25.5359 38.6057 24.6961 34.9999 23.786C33.2815 33.4604 31.5659 43.1395 29.8477 52.8156Z" fill="#F1F1F1"/>
<path d="M23.7091 37.5924V26.7759L13.6367 45.805L23.3244 38.1637L23.7091 37.5924Z" fill="#FFEABB"/>
<path d="M32.4209 38.245L28.0879 40.2593L31.57 43.064L32.4209 38.245Z" fill="#94DA85"/>
<path d="M28.9613 43.0017L26.5938 52.2371C28.6425 52.0039 30.0204 51.8492 30.0204 51.8492L31.256 44.8499L28.9613 43.0017Z" fill="#FFEABB"/>
<path d="M27.6622 41.9568L24.4093 39.3368L11.788 49.292L9.09375 54.3819C9.43401 54.2196 18.8974 53.1169 24.9797 52.421L27.6622 41.9568Z" fill="#94DA85"/>
<path d="M39.3379 33.2377L46.4929 29.9119L45.9368 26.78L40.5081 25.5771L39.3379 33.2377Z" fill="#EAD1A4"/>
<path d="M46.7892 31.5626L46.7895 31.564L45.7063 32.0677L43.8848 43.9908L49.8482 48.7939L46.7892 31.5626Z" fill="#DBCCB2"/>
<path d="M37.7176 50.0565L37.6954 50.0388L36.9582 52.689L40.9507 53.1747L44.0596 32.8243L32.4344 38.2283L31.5762 43.0634L38.1598 48.3662L38.1589 48.3696L38.1598 48.3694L38.1457 48.4208L37.7176 50.0565Z" fill="#86C973"/>
<path d="M36.4085 49.0104L31.2581 44.8621L30.0176 51.8527L35.4342 52.5115L36.4085 49.0104Z" fill="#EAD1A4"/>
<path d="M37.6946 34.0026L39.0317 25.2501L34.9022 24.3349L32.7812 36.2866L37.6946 34.0026Z" fill="#DBCCB2"/>
<path d="M43.6048 45.8141L42.4512 53.366L50.8392 54.3864L50.2703 51.183L43.6048 45.8141Z" fill="#86C973"/>
<path d="M65.8075 43.8339L61.5664 35.6914L61.6374 46.1341C63.0708 45.3447 64.5017 44.5555 65.8075 43.8339Z" fill="#86C973"/>
<path d="M46.7949 31.5954L49.8588 48.8548C50.7316 49.5765 51.6449 50.3309 52.5598 51.0856C53.9669 50.3402 56.9496 48.7087 60.1344 46.9572L60.0375 32.7571L56.9913 26.9093C54.5141 28.0477 50.4182 29.93 46.7949 31.5954Z" fill="#F2E8D0"/>
<path d="M51.5893 27.5298L56.1937 25.3846L55.618 24.2796L50.3809 25.6322L51.5893 27.5298Z" fill="#86C973"/>
<path d="M50.2676 51.1721L50.8385 54.3867L53.8123 54.0224L50.2676 51.1721Z" fill="#94DA85"/>
<path d="M50.1727 28.1835L48.8034 26.033L45.9375 26.7729L46.4922 29.8981L50.1727 28.1835Z" fill="#FFEABB"/>
<path d="M62.5723 52.9557L70.0704 52.0369L67.7203 47.5254C67.239 47.681 66.7641 47.8904 66.3031 48.1558C64.4677 49.2123 63.1816 50.9619 62.5723 52.9557Z" fill="#D6D5D1"/>
<path d="M65.4418 47.4965C66.0474 47.1478 66.6765 46.8959 67.3135 46.7357L66.4759 45.1271L53.9492 52.2357C54.5854 52.76 55.212 53.2761 55.8155 53.7726L61.5102 53.075C61.9998 50.7629 63.3712 48.6884 65.4418 47.4965Z" fill="#EAD1A4"/>
<path d="M32.4349 24.8697C32.116 28.0471 30.1549 30.889 27.2013 31.9696C26.5425 32.2107 25.8748 32.349 25.2129 32.3932V37.9411L26.6775 39.1208L32.7645 36.2912L34.9011 24.3323L32.4349 24.8697Z" fill="#F2E8D0"/>
<path d="M31.5274 25.0731L25.2129 26.449V31.5161C25.6256 31.4437 26.0386 31.3334 26.4481 31.1835C29.091 30.2164 30.9393 27.8392 31.5274 25.0731Z" fill="#AAAAAA"/>
<path d="M39.3375 38.2155L34.5605 40.5726L38.4983 43.601L39.3375 38.2155Z" fill="#E6E6E6"/>
<path d="M37.4869 41.1992C36.9443 41.1992 36.5039 41.1186 36.5039 41.0195C36.5039 40.9199 36.9443 40.741 37.4869 40.741C38.0299 40.741 38.4704 40.9199 38.4704 41.0195C38.4704 41.1186 38.0299 41.1992 37.4869 41.1992Z" fill="#636363"/>
<path d="M37.4919 29.9192C34.6819 29.9192 32.4045 27.4275 32.4045 24.3539C32.4045 21.2798 34.6819 18.7896 37.4919 18.7896H37.4925V17.3623H37.4919C33.9614 17.3623 31.0996 20.4918 31.0996 24.3539C31.0996 28.2166 37.4919 40.574 37.4919 40.574L37.4925 40.573V29.9192H37.4919Z" fill="#FF5402"/>
<path d="M37.4902 17.3635V18.7908C40.2995 18.7911 42.5784 21.2813 42.5784 24.3551C42.5784 27.4284 40.2995 29.9198 37.4902 29.9204V40.5742C37.5354 40.4869 43.8823 28.2038 43.8823 24.3551C43.8823 20.4933 41.0205 17.3638 37.4902 17.3635Z" fill="#ED1C24"/>
<path d="M37.4902 40.5742V29.9204C40.2995 29.9198 42.5784 27.4284 42.5784 24.3551C42.5784 21.2813 40.2995 18.7911 37.4902 18.7908V17.3635C41.0205 17.3638 43.8823 20.4933 43.8823 24.3551C43.8823 28.2038 37.5354 40.4869 37.4902 40.5742Z" fill="#CE4300"/>
<ellipse cx="37.5824" cy="24.3451" rx="3.92814" ry="4.2893" fill="#CE4300"/>
<path d="M37.5283 28.6438C35.383 28.6133 33.6525 26.7065 33.6523 24.3567C33.6523 22.0068 35.3829 20.0981 37.5283 20.0676V28.6438Z" fill="#FF6511"/>
</svg>
