<svg width="80" height="80" viewBox="0 0 80 80" fill="none" xmlns="http://www.w3.org/2000/svg">
<circle cx="40" cy="40" r="39.5" fill="#FFF0E7" stroke="#FFCFB5"/>
<path d="M76.8302 55C70.8962 69.6586 56.5268 79.9999 39.7404 80C22.9539 80 8.58467 69.6586 2.65054 55H76.8302Z" fill="#FFCFB5"/>
<path d="M60.0007 40.8413C60.0007 51.3668 51.4681 59.8993 40.9427 59.8993C30.4174 59.8993 21.8849 51.3668 21.8849 40.8413C21.8849 30.3161 30.4174 21.7835 40.9427 21.7835C51.4681 21.7835 60.0007 30.3161 60.0007 40.8413Z" fill="#E09F1E"/>
<path d="M58.7758 40.0579C58.7758 50.5833 50.2433 59.1158 39.7178 59.1158C29.1925 59.1158 20.66 50.5833 20.66 40.0579C20.66 29.5327 29.1925 21.0001 39.7178 21.0001C50.2433 21.0001 58.7758 29.5327 58.7758 40.0579Z" fill="#FAB528"/>
<path d="M49.28 23.5702C49.4938 24.1531 49.6885 24.7473 49.8593 25.3557C51.2205 30.2094 50.77 35.7947 48.846 40.435C46.2116 46.7881 40.5688 51.4092 34.0511 53.3834C32.0411 53.9923 29.9716 54.3028 27.8687 54.2234C27.559 54.2225 27.2514 54.2138 26.9448 54.2012C30.3245 57.2554 34.8038 59.1157 39.7177 59.1157C50.2431 59.1157 58.7755 50.5833 58.7755 40.0579C58.7755 33.0179 54.9576 26.8702 49.28 23.5702Z" fill="#F9B023"/>
<path d="M55.6826 39.8621H55.2265C55.2263 44.1999 53.4696 48.1228 50.6272 50.9661C47.7837 53.8084 43.861 55.565 39.5232 55.5653C35.1855 55.565 31.2626 53.8084 28.4194 50.9661C25.577 48.1228 23.8202 44.1999 23.82 39.8621C23.8202 35.5244 25.577 31.6014 28.4194 28.7582C31.2626 25.916 35.1855 24.1591 39.5232 24.1589C43.861 24.1591 47.7837 25.916 50.6272 28.7582C53.4696 31.6014 55.2263 35.5244 55.2265 39.8621H55.6826H56.1387C56.1387 35.2755 54.278 31.1187 51.2722 28.1135C48.2667 25.1074 44.1099 23.2467 39.5232 23.2469C34.9365 23.2467 30.7798 25.1074 27.7745 28.1135C24.7684 31.1187 22.9078 35.2755 22.908 39.8621C22.9078 44.449 24.7684 48.6057 27.7745 51.611C30.7798 54.6169 34.9365 56.4775 39.5232 56.4773C44.1099 56.4775 48.2667 54.6169 51.2722 51.611C54.278 48.6057 56.1387 44.449 56.1387 39.8621H55.6826Z" fill="#E09F1E"/>
<path d="M55.8778 40.058H55.4217C55.4214 44.3957 53.6648 48.3186 50.8224 51.162C47.9789 54.0042 44.0562 55.7609 39.7183 55.7611C35.3807 55.7609 31.4577 54.0042 28.6146 51.162C25.7721 48.3186 24.0154 44.3957 24.0152 40.058C24.0154 35.7203 25.7721 31.7973 28.6146 28.9541C31.4577 26.1119 35.3806 24.355 39.7183 24.3547C44.0562 24.355 47.9789 26.1119 50.8224 28.9541C53.6648 31.7973 55.4214 35.7203 55.4217 40.058H55.8778H56.3339C56.3339 35.4714 54.4731 31.3146 51.4674 28.3093C48.4618 25.3033 44.305 23.4425 39.7183 23.4428C35.1317 23.4425 30.975 25.3033 27.9697 28.3093C24.9636 31.3146 23.1029 35.4714 23.1031 40.058C23.1029 44.6449 24.9636 48.8016 27.9697 51.8069C30.975 54.8128 35.1317 56.6734 39.7183 56.6732C44.305 56.6734 48.4618 54.8128 51.4674 51.8069C54.4731 48.8016 56.3339 44.6449 56.3339 40.058H55.8778Z" fill="#F9C851"/>
<path d="M39.8061 40.146C35.9659 40.146 32.8529 38.0589 32.8529 35.4844C32.8529 32.9099 35.9659 30.8228 39.8061 30.8228M39.8061 40.146C43.6462 40.146 46.7594 42.2331 46.7594 44.8076C46.7594 47.3822 43.6463 49.4692 39.8061 49.4692M39.8061 40.146V30.8228M39.8061 40.146L39.8061 49.4692M39.8061 30.8228C42.3798 30.8228 44.6268 31.7603 45.8291 33.1536M39.8061 30.8228V28.492M39.8061 49.4692L39.8061 51.8M39.8061 49.4692C37.2325 49.4692 34.9854 48.5318 33.7831 47.1384" stroke="#E09F1E" stroke-width="5" stroke-linecap="round"/>
<path d="M39.6109 39.7543C35.7708 39.7543 32.6577 37.6672 32.6577 35.0927C32.6577 32.5182 35.7708 30.4311 39.6109 30.4311M39.6109 39.7543C43.4511 39.7543 46.5642 41.8414 46.5642 44.4159C46.5642 46.9904 43.4511 49.0775 39.611 49.0775M39.6109 39.7543V30.4311M39.6109 39.7543L39.611 49.0775M39.6109 30.4311C42.1846 30.4311 44.4317 31.3685 45.6339 32.7619M39.6109 30.4311V28.1003M39.611 49.0775L39.6109 51.4083M39.611 49.0775C37.0373 49.0775 34.7902 48.1401 33.588 46.7467" stroke="#F9C851" stroke-width="4" stroke-linecap="round"/>
</svg>
